<?xml version="1.0" encoding="utf-8"?>
<!-- Generator: Adobe Illustrator 22.1.0, SVG Export Plug-In . SVG Version: 6.00 Build 0)  -->
<svg version="1.1" id="Layer_1" xmlns="http://www.w3.org/2000/svg" xmlns:xlink="http://www.w3.org/1999/xlink" x="0px" y="0px"
	 viewBox="0 0 864 198" style="enable-background:new 0 0 864 198;" xml:space="preserve">
<style type="text/css">
	.st0{fill:#FFFFFF;stroke:#000000;stroke-width:0.5;stroke-miterlimit:10;}
	.st1{fill:#FFFFFF;}
	.st2{fill:none;stroke:#000000;stroke-width:60;stroke-linecap:round;stroke-linejoin:round;stroke-miterlimit:10;}
	.st3{enable-background:new    ;}
	.st4{clip-path:url(#SVGID_2_);enable-background:new    ;}
	.st5{fill:#090909;}
	.st6{fill:#0D0D0D;}
	.st7{fill:#111111;}
	.st8{fill:#131313;}
	.st9{fill:#161616;}
	.st10{fill:#181818;}
	.st11{fill:#1A1A1A;}
	.st12{fill:#1C1C1C;}
	.st13{fill:#1D1D1D;}
	.st14{fill:#1F1F1F;}
	.st15{fill:#212121;}
	.st16{fill:#222222;}
	.st17{fill:#232323;}
	.st18{fill:#252525;}
	.st19{fill:#262626;}
	.st20{fill:#272727;}
	.st21{fill:#292929;}
	.st22{fill:#2A2A2A;}
	.st23{fill:#2B2B2B;}
	.st24{fill:#2C2C2C;}
	.st25{fill:#2D2D2D;}
	.st26{fill:#2E2E2E;}
	.st27{fill:#2F2F2F;}
	.st28{fill:#303030;}
	.st29{fill:#313131;}
	.st30{fill:#323232;}
	.st31{fill:#333333;}
	.st32{fill:#343434;}
	.st33{fill:#353535;}
	.st34{fill:#363636;}
	.st35{fill:#373737;}
	.st36{fill:#383838;}
	.st37{fill:#393939;}
	.st38{fill:#3A3A3A;}
	.st39{fill:#3B3B3B;}
	.st40{fill:#3C3C3C;}
	.st41{fill:#3D3D3D;}
	.st42{fill:#3E3E3E;}
	.st43{fill:#3F3F3F;}
	.st44{fill:#404040;}
	.st45{fill:#414141;}
	.st46{fill:#424242;}
	.st47{fill:#434343;}
	.st48{fill:#444444;}
	.st49{fill:#454545;}
	.st50{fill:#464646;}
	.st51{fill:#474747;}
	.st52{fill:#484848;}
	.st53{fill:#494949;}
	.st54{fill:#4A4A4A;}
	.st55{fill:#4B4B4B;}
	.st56{fill:#4C4C4C;}
	.st57{fill:#4D4D4D;}
	.st58{fill:#4E4E4E;}
	.st59{fill:#4F4F4F;}
	.st60{fill:#505050;}
	.st61{fill:#515151;}
	.st62{fill:#525252;}
	.st63{fill:#535353;}
	.st64{fill:#545454;}
	.st65{fill:#555555;}
	.st66{fill:#565656;}
	.st67{fill:#575757;}
	.st68{fill:#585858;}
	.st69{fill:#595959;}
	.st70{fill:#5A5A5A;}
	.st71{fill:#5B5B5B;}
	.st72{fill:#5C5C5C;}
	.st73{fill:#5D5D5D;}
	.st74{fill:#5E5E5E;}
	.st75{fill:#5F5F5F;}
	.st76{fill:#606060;}
	.st77{fill:#616161;}
	.st78{fill:#626262;}
	.st79{fill:#636363;}
	.st80{fill:#646464;}
	.st81{fill:#656565;}
	.st82{fill:#666666;}
	.st83{fill:#676767;}
	.st84{fill:#686868;}
	.st85{fill:#696969;}
	.st86{fill:#6A6A6A;}
	.st87{fill:#6B6B6B;}
	.st88{fill:#6C6C6C;}
	.st89{fill:#6D6D6D;}
	.st90{fill:#6E6E6E;}
	.st91{fill:#6F6F6F;}
	.st92{fill:#707070;}
	.st93{fill:#717171;}
	.st94{fill:#727272;}
	.st95{fill:#737373;}
	.st96{fill:#747474;}
	.st97{fill:#757575;}
	.st98{fill:#767676;}
	.st99{fill:#777777;}
	.st100{fill:#787878;}
	.st101{fill:#797979;}
	.st102{fill:#7A7A7A;}
	.st103{fill:#7B7B7B;}
	.st104{clip-path:url(#SVGID_4_);enable-background:new    ;}
	.st105{clip-path:url(#SVGID_6_);enable-background:new    ;}
	.st106{clip-path:url(#SVGID_8_);enable-background:new    ;}
	.st107{clip-path:url(#SVGID_10_);enable-background:new    ;}
	.st108{clip-path:url(#SVGID_12_);enable-background:new    ;}
	.st109{clip-path:url(#SVGID_14_);enable-background:new    ;}
	.st110{clip-path:url(#SVGID_16_);enable-background:new    ;}
	.st111{clip-path:url(#SVGID_18_);enable-background:new    ;}
	.st112{clip-path:url(#SVGID_20_);enable-background:new    ;}
	.st113{clip-path:url(#SVGID_22_);enable-background:new    ;}
	.st114{clip-path:url(#SVGID_24_);enable-background:new    ;}
	.st115{clip-path:url(#SVGID_26_);enable-background:new    ;}
	.st116{clip-path:url(#SVGID_28_);enable-background:new    ;}
	.st117{clip-path:url(#SVGID_30_);enable-background:new    ;}
	.st118{clip-path:url(#SVGID_32_);enable-background:new    ;}
	.st119{clip-path:url(#SVGID_34_);enable-background:new    ;}
	.st120{clip-path:url(#SVGID_36_);enable-background:new    ;}
	.st121{clip-path:url(#SVGID_38_);enable-background:new    ;}
	.st122{clip-path:url(#SVGID_40_);enable-background:new    ;}
	.st123{clip-path:url(#SVGID_42_);enable-background:new    ;}
	.st124{clip-path:url(#SVGID_44_);enable-background:new    ;}
	.st125{clip-path:url(#SVGID_46_);enable-background:new    ;}
	.st126{clip-path:url(#SVGID_48_);enable-background:new    ;}
</style>
<g>
	<path d="M58.1,119.8l17.3-4.9c-1.4,7.6,2.3,13.7,13.7,13.7c8.7,0,12.9-3.4,12.9-7.7c0-13.5-43.4-2.1-43.4-31.1
		c0-14.3,12-22,29.2-22c18.5,0,30.3,8.9,29.8,22.2l-16.9,4.7c1.3-7-3.7-11.7-12.3-11.9c-7-0.1-11.9,2.9-11.9,7
		c0,12.7,43.4,2.6,43.4,29.8c0,15-12.6,24.1-30.9,24.1C67.7,143.8,57.4,134,58.1,119.8z"/>
	<path d="M138,121.9V84.8h-10.3V70H138V54l17.5-6.4V70h20.9v14.7h-20.9V121c0,4,1.4,7.7,5.3,7.7c3.7,0,6.7-4.3,4.7-11.2l15.6,6
		c1.9,9.2-6.4,20.2-21.2,20.2C145.9,143.8,138,134,138,121.9z"/>
	<path d="M190,47.1c0-6.2,5.2-11.3,11.5-11.3c6.2,0,11.3,5.2,11.3,11.3c0,6.3-5.2,11.5-11.3,11.5C195.1,58.6,190,53.4,190,47.1z
		 M192.7,124.4V70h17.5v50c0,4,1.9,6.6,4.7,6.6c2.6,0,5-2,6.6-4.6l6.3,15.5c-5.2,3.7-12,6.3-17,6.3
		C199.9,143.8,192.7,136,192.7,124.4z"/>
	<path d="M236.4,124.4V38.5h17.5v81.7c0,4,1.9,6.6,4.7,6.6c2.6,0,4.9-1.6,6.3-4l6.3,13.9c-4.6,4.2-11.3,7-16.7,7
		C243.5,143.8,236.4,136,236.4,124.4z"/>
	<path d="M279.7,124.4V38.5h17.5v81.7c0,4,1.9,6.6,4.7,6.6c2.6,0,4.9-1.6,6.3-4l6.3,13.9c-4.6,4.2-11.3,7-16.7,7
		C286.9,143.8,279.7,136,279.7,124.4z"/>
	<path d="M363.6,121.9V84.8h-10.3V70h10.3V54l17.5-6.4V70H402v14.7h-20.9V121c0,4,1.4,7.7,5.3,7.7c3.7,0,6.7-4.3,4.7-11.2l15.6,6
		c1.9,9.2-6.4,20.2-21.2,20.2C371.5,143.8,363.6,134,363.6,121.9z"/>
	<path d="M480.2,121.4c-1.7,9.9-11.5,22.3-31.6,22.3c-26.5,0-35.4-18.8-35.4-37.9c0-22.2,12-37.9,34.2-37.9
		c26.2,0,37.1,23.2,30.8,42.9h-46.2c0.6,9,5,17.9,16.7,17.9c8.6,0,13.9-4.6,14.7-12.9L480.2,121.4z M432.2,97.5h28.3
		c0.7-9.6-5-14.6-12.5-14.6C440.2,82.9,433.8,88.6,432.2,97.5z"/>
	<path d="M491,119.8l17.3-4.9c-1.4,7.6,2.3,13.7,13.7,13.7c8.7,0,12.9-3.4,12.9-7.7c0-13.5-43.4-2.1-43.4-31.1c0-14.3,12-22,29.2-22
		c18.5,0,30.3,8.9,29.8,22.2l-16.9,4.7c1.3-7-3.7-11.7-12.3-11.9c-7-0.1-11.9,2.9-11.9,7c0,12.7,43.4,2.6,43.4,29.8
		c0,15-12.6,24.1-30.9,24.1C500.6,143.8,490.3,134,491,119.8z"/>
	<path d="M570.9,121.9V84.8h-10.3V70h10.3V54l17.5-6.4V70h20.9v14.7h-20.9V121c0,4,1.4,7.7,5.3,7.7c3.7,0,6.7-4.3,4.7-11.2l15.6,6
		c1.9,9.2-6.4,20.2-21.2,20.2C578.8,143.8,570.9,134,570.9,121.9z"/>
	<path d="M622.9,47.1c0-6.2,5.2-11.3,11.5-11.3c6.2,0,11.3,5.2,11.3,11.3c0,6.3-5.2,11.5-11.3,11.5C628,58.6,622.9,53.4,622.9,47.1z
		 M625.6,124.4V70h17.5v50c0,4,1.9,6.6,4.7,6.6c2.6,0,5-2,6.6-4.6l6.3,15.5c-5.2,3.7-12,6.3-17,6.3
		C632.8,143.8,625.6,136,625.6,124.4z"/>
	<path d="M732.5,95.8l-0.1,45.8h-17.5v-41.5c0-9.7-3.6-16.3-12.5-16.3c-9.3,0-15.7,7.3-15.7,18.5v39.4h-17.5V87.4
		c0-6.2-1.6-13-4-17.3h18c1.9,3,2.7,6.7,3.1,11c4.6-7.6,13.5-13.2,23.8-13.2C723.1,67.9,732.5,76.9,732.5,95.8z"/>
	<path d="M745.8,152.8c0-7,4.4-13.6,16.5-17c-5.9-1.9-8.7-5.3-8.7-9.7c0-4.6,2.7-9.2,9.3-11.3c-9.9-4.7-14-11.5-14-20.8
		c0-15.6,12-26.1,29.9-26.1c7.7,0,15.2,2,19.8,5.6c0-7.6,4.4-13.2,11.9-13.2c4.4,0,8.9,2.1,11.6,5.4l-7.3,14c-2.3-4-4.7-4.4-6.3-4.4
		c-3.4,0-4.7,3.3-3.2,6c2.3,4,3.4,8.7,3.4,12.6c0,15.6-12,26.1-29.9,26.1c-5.6,0-7.2,2.4-7.2,4.3c0,1.7,1.3,3.6,3.9,3.6h8.6
		c19,0,31.4,8.6,31.4,22c0,14.3-14.7,24.6-35.2,24.6C759.6,174.5,745.8,165.8,745.8,152.8z M796.1,150.3c0-5-5.2-7.9-14.3-7.9h-5.3
		c-7.2,0-11.9,3.4-11.9,8.6c0,5,6.3,8.3,15.7,8.3C790.4,159.4,796.1,156.1,796.1,150.3z M789.9,93.9c0-6.4-4.3-10.6-11.2-10.6
		c-6.9,0-11.2,4.2-11.2,10.6c0,6.4,4.3,10.6,11.2,10.6C785.6,104.5,789.9,100.4,789.9,93.9z"/>
</g>
</svg>
